<group>
ampeg_attack=0.100000
ampeg_release=0.500000

<region>
seq_length=2
seq_position=1
lovel=0
hivel=41
sample=Upright Piano, Yamaha/Sus/Upright1_Sus_C0_vl1_rr1.wav
pitch_keycenter=12
lokey=12.0
hikey=15.0
volume=6.000000

<region>
seq_length=2
seq_position=2
lovel=0
hivel=41
sample=Upright Piano, Yamaha/Sus/Upright1_Sus_C0_vl1_rr2.wav
pitch_keycenter=12
lokey=12.0
hikey=15.0
volume=6.000000

<region>
lovel=42
hivel=84
sample=Upright Piano, Yamaha/Sus/Upright1_Sus_C0_vl2_rr1.wav
pitch_keycenter=12
lokey=12.0
hikey=15.0
volume=3.641084

<region>
seq_length=2
seq_position=1
lovel=85
hivel=127
sample=Upright Piano, Yamaha/Sus/Upright1_Sus_C0_vl3_rr1.wav
pitch_keycenter=12
lokey=12.0
hikey=15.0
volume=1.807817

<region>
seq_length=2
seq_position=2
lovel=85
hivel=127
sample=Upright Piano, Yamaha/Sus/Upright1_Sus_C0_vl3_rr2.wav
pitch_keycenter=12
lokey=12.0
hikey=15.0
tune=8
volume=-4.708172

<region>
lovel=0
hivel=41
sample=Upright Piano, Yamaha/Sus/Upright1_Sus_G0_vl1_rr1.wav
pitch_keycenter=19
lokey=16.0
hikey=21.0
tune=8
volume=6.000000

<region>
lovel=42
hivel=84
sample=Upright Piano, Yamaha/Sus/Upright1_Sus_G0_vl2_rr1.wav
pitch_keycenter=19
lokey=16.0
hikey=21.0
tune=-2
volume=4.228881

<region>
lovel=85
hivel=127
sample=Upright Piano, Yamaha/Sus/Upright1_Sus_G0_vl3_rr1.wav
pitch_keycenter=19
lokey=16.0
hikey=21.0
tune=5
volume=-4.552590

<region>
lovel=0
hivel=41
sample=Upright Piano, Yamaha/Sus/Upright1_Sus_C1_vl1_rr1.wav
pitch_keycenter=24
lokey=22.0
hikey=27.0
tune=3
volume=6.000000

<region>
seq_length=2
seq_position=1
lovel=42
hivel=84
sample=Upright Piano, Yamaha/Sus/Upright1_Sus_C1_vl2_rr1.wav
pitch_keycenter=24
lokey=22.0
hikey=27.0
tune=1
volume=6.000000

<region>
seq_length=2
seq_position=2
lovel=42
hivel=84
sample=Upright Piano, Yamaha/Sus/Upright1_Sus_C1_vl2_rr2.wav
pitch_keycenter=24
lokey=22.0
hikey=27.0
tune=-4
volume=-0.345603

<region>
seq_length=2
seq_position=1
lovel=85
hivel=127
sample=Upright Piano, Yamaha/Sus/Upright1_Sus_C1_vl3_rr1.wav
pitch_keycenter=24
lokey=22.0
hikey=27.0
tune=-5
volume=-5.323115

<region>
seq_length=2
seq_position=2
lovel=85
hivel=127
sample=Upright Piano, Yamaha/Sus/Upright1_Sus_C1_vl3_rr2.wav
pitch_keycenter=24
lokey=22.0
hikey=27.0
tune=-6
volume=-6.378471

<region>
lovel=0
hivel=41
sample=Upright Piano, Yamaha/Sus/Upright1_Sus_G1_vl1_rr1.wav
pitch_keycenter=31
lokey=28.0
hikey=33.0
volume=6.000000

<region>
seq_length=2
seq_position=1
lovel=42
hivel=84
sample=Upright Piano, Yamaha/Sus/Upright1_Sus_G1_vl2_rr1.wav
pitch_keycenter=31
lokey=28.0
hikey=33.0
tune=-3
volume=6.000000

<region>
seq_length=2
seq_position=2
lovel=42
hivel=84
sample=Upright Piano, Yamaha/Sus/Upright1_Sus_G1_vl2_rr2.wav
pitch_keycenter=31
lokey=28.0
hikey=33.0
tune=-6
volume=1.741346

<region>
seq_length=2
seq_position=1
lovel=85
hivel=127
sample=Upright Piano, Yamaha/Sus/Upright1_Sus_G1_vl3_rr1.wav
pitch_keycenter=31
lokey=28.0
hikey=33.0
tune=-9
volume=-6.607382

<region>
seq_length=2
seq_position=2
lovel=85
hivel=127
sample=Upright Piano, Yamaha/Sus/Upright1_Sus_G1_vl3_rr2.wav
pitch_keycenter=31
lokey=28.0
hikey=33.0
tune=-9
volume=-8.019660

<region>
seq_length=2
seq_position=1
lovel=0
hivel=41
sample=Upright Piano, Yamaha/Sus/Upright1_Sus_C2_vl1_rr1.wav
pitch_keycenter=36
lokey=34.0
hikey=39.0
tune=1
volume=6.000000

<region>
seq_length=2
seq_position=2
lovel=0
hivel=41
sample=Upright Piano, Yamaha/Sus/Upright1_Sus_C2_vl1_rr2.wav
pitch_keycenter=36
lokey=34.0
hikey=39.0
tune=1
volume=6.000000

<region>
seq_length=2
seq_position=1
lovel=42
hivel=84
sample=Upright Piano, Yamaha/Sus/Upright1_Sus_C2_vl2_rr1.wav
pitch_keycenter=36
lokey=34.0
hikey=39.0
tune=-1
volume=4.888998

<region>
seq_length=2
seq_position=2
lovel=42
hivel=84
sample=Upright Piano, Yamaha/Sus/Upright1_Sus_C2_vl2_rr2.wav
pitch_keycenter=36
lokey=34.0
hikey=39.0
tune=-2
volume=0.097862

<region>
seq_length=2
seq_position=1
lovel=85
hivel=127
sample=Upright Piano, Yamaha/Sus/Upright1_Sus_C2_vl3_rr1.wav
pitch_keycenter=36
lokey=34.0
hikey=39.0
tune=-3
volume=-5.108011

<region>
seq_length=2
seq_position=2
lovel=85
hivel=127
sample=Upright Piano, Yamaha/Sus/Upright1_Sus_C2_vl3_rr2.wav
pitch_keycenter=36
lokey=34.0
hikey=39.0
tune=-3
volume=-4.966514

<region>
seq_length=2
seq_position=1
lovel=0
hivel=41
sample=Upright Piano, Yamaha/Sus/Upright1_Sus_G2_vl1_rr1.wav
pitch_keycenter=43
lokey=40.0
hikey=45.0
volume=6.000000

<region>
seq_length=2
seq_position=2
lovel=0
hivel=41
sample=Upright Piano, Yamaha/Sus/Upright1_Sus_G2_vl1_rr2.wav
pitch_keycenter=43
lokey=40.0
hikey=45.0
volume=6.000000

<region>
seq_length=2
seq_position=1
lovel=42
hivel=84
sample=Upright Piano, Yamaha/Sus/Upright1_Sus_G2_vl2_rr1.wav
pitch_keycenter=43
lokey=40.0
hikey=45.0
tune=-5
volume=0.476154

<region>
seq_length=2
seq_position=2
lovel=42
hivel=84
sample=Upright Piano, Yamaha/Sus/Upright1_Sus_G2_vl2_rr2.wav
pitch_keycenter=43
lokey=40.0
hikey=45.0
tune=-6
volume=0.332269

<region>
seq_length=2
seq_position=1
lovel=85
hivel=127
sample=Upright Piano, Yamaha/Sus/Upright1_Sus_G2_vl3_rr1.wav
pitch_keycenter=43
lokey=40.0
hikey=45.0
tune=-8
volume=-9.224868

<region>
seq_length=2
seq_position=2
lovel=85
hivel=127
sample=Upright Piano, Yamaha/Sus/Upright1_Sus_G2_vl3_rr2.wav
pitch_keycenter=43
lokey=40.0
hikey=45.0
tune=-8
volume=-7.251521

<region>
seq_length=2
seq_position=1
lovel=0
hivel=41
sample=Upright Piano, Yamaha/Sus/Upright1_Sus_C3_vl1_rr1.wav
pitch_keycenter=48
lokey=46.0
hikey=51.0
volume=6.000000

<region>
seq_length=2
seq_position=2
lovel=0
hivel=41
sample=Upright Piano, Yamaha/Sus/Upright1_Sus_C3_vl1_rr2.wav
pitch_keycenter=48
lokey=46.0
hikey=51.0
volume=6.000000

<region>
seq_length=2
seq_position=1
lovel=42
hivel=84
sample=Upright Piano, Yamaha/Sus/Upright1_Sus_C3_vl2_rr1.wav
pitch_keycenter=48
lokey=46.0
hikey=51.0
tune=-2
volume=4.158663

<region>
seq_length=2
seq_position=2
lovel=42
hivel=84
sample=Upright Piano, Yamaha/Sus/Upright1_Sus_C3_vl2_rr2.wav
pitch_keycenter=48
lokey=46.0
hikey=51.0
tune=-2
volume=0.926395

<region>
seq_length=2
seq_position=1
lovel=85
hivel=127
sample=Upright Piano, Yamaha/Sus/Upright1_Sus_C3_vl3_rr1.wav
pitch_keycenter=48
lokey=46.0
hikey=51.0
tune=-5
volume=-6.940383

<region>
seq_length=2
seq_position=2
lovel=85
hivel=127
sample=Upright Piano, Yamaha/Sus/Upright1_Sus_C3_vl3_rr2.wav
pitch_keycenter=48
lokey=46.0
hikey=51.0
tune=-4
volume=-6.136041

<region>
seq_length=2
seq_position=1
lovel=0
hivel=41
sample=Upright Piano, Yamaha/Sus/Upright1_Sus_G3_vl1_rr1.wav
pitch_keycenter=55
lokey=52.0
hikey=57.0
tune=-2
volume=6.000000

<region>
seq_length=2
seq_position=2
lovel=0
hivel=41
sample=Upright Piano, Yamaha/Sus/Upright1_Sus_G3_vl1_rr2.wav
pitch_keycenter=55
lokey=52.0
hikey=57.0
tune=-1
volume=6.000000

<region>
seq_length=2
seq_position=1
lovel=42
hivel=84
sample=Upright Piano, Yamaha/Sus/Upright1_Sus_G3_vl2_rr1.wav
pitch_keycenter=55
lokey=52.0
hikey=57.0
tune=-4
volume=6.000000

<region>
seq_length=2
seq_position=2
lovel=42
hivel=84
sample=Upright Piano, Yamaha/Sus/Upright1_Sus_G3_vl2_rr2.wav
pitch_keycenter=55
lokey=52.0
hikey=57.0
tune=-6
volume=1.343567

<region>
seq_length=2
seq_position=1
lovel=85
hivel=127
sample=Upright Piano, Yamaha/Sus/Upright1_Sus_G3_vl3_rr1.wav
pitch_keycenter=55
lokey=52.0
hikey=57.0
tune=-7
volume=-4.881486

<region>
seq_length=2
seq_position=2
lovel=85
hivel=127
sample=Upright Piano, Yamaha/Sus/Upright1_Sus_G3_vl3_rr2.wav
pitch_keycenter=55
lokey=52.0
hikey=57.0
tune=-8
volume=-5.323157

<region>
seq_length=2
seq_position=1
lovel=0
hivel=41
sample=Upright Piano, Yamaha/Sus/Upright1_Sus_C4_vl1_rr1.wav
pitch_keycenter=60
lokey=58.0
hikey=63.0
tune=-2
volume=6.000000

<region>
seq_length=2
seq_position=2
lovel=0
hivel=41
sample=Upright Piano, Yamaha/Sus/Upright1_Sus_C4_vl1_rr2.wav
pitch_keycenter=60
lokey=58.0
hikey=63.0
tune=-1
volume=6.000000

<region>
seq_length=2
seq_position=1
lovel=42
hivel=84
sample=Upright Piano, Yamaha/Sus/Upright1_Sus_C4_vl2_rr1.wav
pitch_keycenter=60
lokey=58.0
hikey=63.0
tune=-3
volume=1.952150

<region>
seq_length=2
seq_position=2
lovel=42
hivel=84
sample=Upright Piano, Yamaha/Sus/Upright1_Sus_C4_vl2_rr2.wav
pitch_keycenter=60
lokey=58.0
hikey=63.0
tune=-4
volume=-1.440761

<region>
seq_length=2
seq_position=1
lovel=85
hivel=127
sample=Upright Piano, Yamaha/Sus/Upright1_Sus_C4_vl3_rr1.wav
pitch_keycenter=60
lokey=58.0
hikey=63.0
tune=-6
volume=-8.856524

<region>
seq_length=2
seq_position=2
lovel=85
hivel=127
sample=Upright Piano, Yamaha/Sus/Upright1_Sus_C4_vl3_rr2.wav
pitch_keycenter=60
lokey=58.0
hikey=63.0
tune=-6
volume=-8.246340

<region>
seq_length=2
seq_position=1
lovel=0
hivel=41
sample=Upright Piano, Yamaha/Sus/Upright1_Sus_G4_vl1_rr1.wav
pitch_keycenter=67
lokey=64.0
hikey=69.0
tune=3
volume=6.000000

<region>
seq_length=2
seq_position=2
lovel=0
hivel=41
sample=Upright Piano, Yamaha/Sus/Upright1_Sus_G4_vl1_rr2.wav
pitch_keycenter=67
lokey=64.0
hikey=69.0
tune=3
volume=6.000000

<region>
seq_length=2
seq_position=1
lovel=42
hivel=84
sample=Upright Piano, Yamaha/Sus/Upright1_Sus_G4_vl2_rr1.wav
pitch_keycenter=67
lokey=64.0
hikey=69.0
volume=-0.983270

<region>
seq_length=2
seq_position=2
lovel=42
hivel=84
sample=Upright Piano, Yamaha/Sus/Upright1_Sus_G4_vl2_rr2.wav
pitch_keycenter=67
lokey=64.0
hikey=69.0
volume=-0.844937

<region>
seq_length=2
seq_position=1
lovel=85
hivel=127
sample=Upright Piano, Yamaha/Sus/Upright1_Sus_G4_vl3_rr1.wav
pitch_keycenter=67
lokey=64.0
hikey=69.0
tune=-1
volume=-7.290823

<region>
seq_length=2
seq_position=2
lovel=85
hivel=127
sample=Upright Piano, Yamaha/Sus/Upright1_Sus_G4_vl3_rr2.wav
pitch_keycenter=67
lokey=64.0
hikey=69.0
tune=-1
volume=-6.398889

<region>
seq_length=2
seq_position=1
lovel=0
hivel=41
sample=Upright Piano, Yamaha/Sus/Upright1_Sus_C5_vl1_rr1.wav
pitch_keycenter=72
lokey=70.0
hikey=75.0
volume=6.000000

<region>
seq_length=2
seq_position=2
lovel=0
hivel=41
sample=Upright Piano, Yamaha/Sus/Upright1_Sus_C5_vl1_rr2.wav
pitch_keycenter=72
lokey=70.0
hikey=75.0
tune=1
volume=6.000000

<region>
seq_length=2
seq_position=1
lovel=42
hivel=84
sample=Upright Piano, Yamaha/Sus/Upright1_Sus_C5_vl2_rr1.wav
pitch_keycenter=72
lokey=70.0
hikey=75.0
tune=1
volume=5.431828

<region>
seq_length=2
seq_position=2
lovel=42
hivel=84
sample=Upright Piano, Yamaha/Sus/Upright1_Sus_C5_vl2_rr2.wav
pitch_keycenter=72
lokey=70.0
hikey=75.0
tune=2
volume=5.187154

<region>
seq_length=2
seq_position=1
lovel=85
hivel=127
sample=Upright Piano, Yamaha/Sus/Upright1_Sus_C5_vl3_rr1.wav
pitch_keycenter=72
lokey=70.0
hikey=75.0
volume=-1.760180

<region>
seq_length=2
seq_position=2
lovel=85
hivel=127
sample=Upright Piano, Yamaha/Sus/Upright1_Sus_C5_vl3_rr2.wav
pitch_keycenter=72
lokey=70.0
hikey=75.0
volume=-1.028626

<region>
seq_length=2
seq_position=1
lovel=0
hivel=41
sample=Upright Piano, Yamaha/Sus/Upright1_Sus_G5_vl1_rr1.wav
pitch_keycenter=79
lokey=76.0
hikey=81.0
volume=6.000000

<region>
seq_length=2
seq_position=2
lovel=0
hivel=41
sample=Upright Piano, Yamaha/Sus/Upright1_Sus_G5_vl1_rr2.wav
pitch_keycenter=79
lokey=76.0
hikey=81.0
volume=6.000000

<region>
seq_length=2
seq_position=1
lovel=42
hivel=84
sample=Upright Piano, Yamaha/Sus/Upright1_Sus_G5_vl2_rr1.wav
pitch_keycenter=79
lokey=76.0
hikey=81.0
tune=1
volume=6.000000

<region>
seq_length=2
seq_position=2
lovel=42
hivel=84
sample=Upright Piano, Yamaha/Sus/Upright1_Sus_G5_vl2_rr2.wav
pitch_keycenter=79
lokey=76.0
hikey=81.0
tune=1
volume=5.771573

<region>
seq_length=3
seq_position=1
lovel=85
hivel=127
sample=Upright Piano, Yamaha/Sus/Upright1_Sus_G5_vl3_rr1.wav
pitch_keycenter=79
lokey=76.0
hikey=81.0
tune=-5
volume=-2.505636

<region>
seq_length=3
seq_position=2
lovel=85
hivel=127
sample=Upright Piano, Yamaha/Sus/Upright1_Sus_G5_vl3_rr2.wav
pitch_keycenter=79
lokey=76.0
hikey=81.0
volume=2.811057

<region>
seq_length=3
seq_position=3
lovel=85
hivel=127
sample=Upright Piano, Yamaha/Sus/Upright1_Sus_G5_vl3_rr3.wav
pitch_keycenter=79
lokey=76.0
hikey=81.0
tune=-2
volume=-1.903197

<region>
seq_length=2
seq_position=1
lovel=0
hivel=63
sample=Upright Piano, Yamaha/Sus/Upright1_Sus_C6_vl2_rr1.wav
pitch_keycenter=84
lokey=82.0
hikey=85.0
tune=1
volume=2.532214

<region>
seq_length=2
seq_position=2
lovel=0
hivel=63
sample=Upright Piano, Yamaha/Sus/Upright1_Sus_C6_vl2_rr2.wav
pitch_keycenter=84
lokey=82.0
hikey=85.0
tune=2
volume=6.000000

<region>
seq_length=2
seq_position=1
lovel=64
hivel=127
sample=Upright Piano, Yamaha/Sus/Upright1_Sus_C6_vl3_rr1.wav
pitch_keycenter=84
lokey=82.0
hikey=85.0
volume=-3.211388

<region>
seq_length=2
seq_position=2
lovel=64
hivel=127
sample=Upright Piano, Yamaha/Sus/Upright1_Sus_C6_vl3_rr2.wav
pitch_keycenter=84
lokey=82.0
hikey=85.0
volume=-2.995163

